# xmcd
# 
# Track frame offsets:
#     150
#     11994
#     24565
#     37202
#     50147
#     67249
#     78752
#     88897
#     99867
#     110077
#     121600
#     130123
#     144296
#     157441
#     171350
#     192823
#     207731
#     220666
#     235768
#     251485
#     269026
# 
# Disc length: 3805
# 
# Revision: 0
# Processed by: cddbd v1.5.2PL0 Copyright (c) Steve Scherf et al.
# Submitted via: BonkEnc v1.0.5
# 
DISCID=3e0edb15
DTITLE=Johnny Cash - Ring Of Fire - The Legend Of Johnny Cash
DYEAR=2005
DGENRE=Country
TTITLE0=Ring Of Fire
TTITLE1=I Walk The Line
TTITLE2=Jackson (Duet With June Carter)
TTITLE3=Folsom Prison Blues
TTITLE4=A Boy Name Sue (Live)
TTITLE5=Big River
TTITLE6=Get Rhythm
TTITLE7=Cry! Cry! Cry!
TTITLE8=Hey Porter
TTITLE9=A Thing Called Love
TTITLE10=Guess Things Happen That Way
TTITLE11=San Quentin (Live)
TTITLE12=Man In Black
TTITLE13=Highwayman (With Willie Nelson, Waylon Jennings and Kris Kristofferson)
TTITLE14=The Wanderer (U2 Starring Johnny Cash)
TTITLE15=I've Been Everywhere
TTITLE16=Rusty Cage
TTITLE17=Personal Jesus
TTITLE18=Give My Love To Rose
TTITLE19=One
TTITLE20=Hurt
EXTD=
EXTT0=
EXTT1=
EXTT2=
EXTT3=
EXTT4=
EXTT5=
EXTT6=
EXTT7=
EXTT8=
EXTT9=
EXTT10=
EXTT11=
EXTT12=
EXTT13=
EXTT14=
EXTT15=
EXTT16=
EXTT17=
EXTT18=
EXTT19=
EXTT20=
PLAYORDER=
